<?xml version="1.0" encoding="UTF-8" standalone="no"?>
<!-- Created with Inkscape (http://www.inkscape.org/) -->

<svg
   version="1.1"
   id="svg2"
   width="499.99997"
   height="499.99997"
   viewBox="0 0 499.99998 499.99996"
   sodipodi:docname="FireIcon.svg"
   inkscape:version="1.4.2 (ebf0e940d0, 2025-05-08)"
   xml:space="preserve"
   inkscape:export-filename="EarthIcon.png"
   inkscape:export-xdpi="25.0746"
   inkscape:export-ydpi="25.0746"
   xmlns:inkscape="http://www.inkscape.org/namespaces/inkscape"
   xmlns:sodipodi="http://sodipodi.sourceforge.net/DTD/sodipodi-0.dtd"
   xmlns:xlink="http://www.w3.org/1999/xlink"
   xmlns="http://www.w3.org/2000/svg"
   xmlns:svg="http://www.w3.org/2000/svg"><defs
     id="defs6"><inkscape:path-effect
       effect="copy_rotate"
       starting_point="7100.0528,331.44966"
       origin="7100.0528,1118.7532"
       id="path-effect19600"
       is_visible="true"
       lpeversion="1.2"
       lpesatellites=""
       method="normal"
       num_copies="6"
       starting_angle="90"
       rotation_angle="60"
       gap="-0.01"
       copies_to_360="true"
       mirror_copies="false"
       split_items="false"
       link_styles="false" /><inkscape:path-effect
       effect="copy_rotate"
       starting_point="7435.3311,1787.9496"
       origin="6913.2085,1787.9496"
       id="path-effect19580"
       is_visible="true"
       lpeversion="1.2"
       lpesatellites=""
       method="normal"
       num_copies="6"
       starting_angle="0"
       rotation_angle="60"
       gap="-0.01"
       copies_to_360="true"
       mirror_copies="false"
       split_items="false"
       link_styles="false" /><inkscape:path-effect
       effect="gears"
       id="path-effect19560"
       is_visible="true"
       lpeversion="1"
       teeth="10"
       phi="5"
       min_radius="5" /><inkscape:path-effect
       effect="gears"
       id="path-effect19477"
       is_visible="true"
       lpeversion="1"
       teeth="10"
       phi="5"
       min_radius="5" /><inkscape:path-effect
       effect="gears"
       id="path-effect19329"
       is_visible="true"
       lpeversion="1"
       teeth="10"
       phi="5"
       min_radius="5" /><inkscape:path-effect
       effect="gears"
       id="path-effect19311"
       is_visible="true"
       lpeversion="1"
       teeth="4"
       phi="4.6"
       min_radius="3.61" /><linearGradient
       inkscape:collect="always"
       id="linearGradient13977"><stop
         style="stop-color:#ffffff;stop-opacity:1;"
         offset="0"
         id="stop13973" /><stop
         style="stop-color:#ffffff;stop-opacity:0;"
         offset="1"
         id="stop13975" /></linearGradient><inkscape:perspective
       sodipodi:type="inkscape:persp3d"
       inkscape:vp_x="0 : -2506.906 : 1"
       inkscape:vp_y="0 : 1000 : 0"
       inkscape:vp_z="10669.638 : -2506.906 : 1"
       inkscape:persp3d-origin="5334.8189 : -3509.208 : 1"
       id="perspective29885" /><inkscape:path-effect
       effect="perspective-envelope"
       up_left_point="6533.1138,1130.2775"
       up_right_point="7054.3842,1130.2775"
       down_left_point="5100.996,1282.4426"
       down_right_point="7054.3842,1581.711"
       id="path-effect24672"
       is_visible="true"
       lpeversion="1"
       deform_type="perspective"
       horizontal_mirror="false"
       vertical_mirror="false"
       overflow_perspective="false" /><inkscape:path-effect
       effect="perspective-envelope"
       up_left_point="3963.8455,4088.9277"
       up_right_point="9662.5124,4088.9277"
       down_left_point="5946.1766,4724.5946"
       down_right_point="7650.4435,4730.4506"
       id="path-effect21744"
       is_visible="true"
       lpeversion="1"
       deform_type="perspective"
       horizontal_mirror="false"
       vertical_mirror="false"
       overflow_perspective="false" /><linearGradient
       inkscape:collect="always"
       id="linearGradient8394"><stop
         style="stop-color:#000000;stop-opacity:1;"
         offset="0"
         id="stop8390" /><stop
         style="stop-color:#000000;stop-opacity:0;"
         offset="1"
         id="stop8392" /></linearGradient><radialGradient
       inkscape:collect="always"
       xlink:href="#linearGradient8394"
       id="radialGradient3641-0-9-5"
       cx="748.52399"
       cy="897.76459"
       fx="748.52399"
       fy="897.76459"
       r="23.523617"
       gradientUnits="userSpaceOnUse"
       gradientTransform="matrix(22.64762,-17.679006,13.072425,16.746379,-20864.9,1797.1392)" /><radialGradient
       inkscape:collect="always"
       xlink:href="#linearGradient8394"
       id="radialGradient3641-0-9-6-44"
       cx="748.52399"
       cy="897.76459"
       fx="748.52399"
       fy="897.76459"
       r="23.523617"
       gradientUnits="userSpaceOnUse"
       gradientTransform="matrix(22.781472,-17.506183,7.1351841,9.2852918,-15481.919,2084.2846)" /><radialGradient
       inkscape:collect="always"
       xlink:href="#linearGradient13977"
       id="radialGradient3641-1-9-3-3"
       cx="746.43372"
       cy="904.35248"
       fx="746.43372"
       fy="904.35248"
       r="23.523617"
       gradientUnits="userSpaceOnUse"
       gradientTransform="matrix(10.88632,-10.957387,15.070935,14.97319,-28366.25,-9253.2195)" /></defs><sodipodi:namedview
     id="namedview4"
     pagecolor="#ffffff"
     bordercolor="#666666"
     borderopacity="1.0"
     inkscape:showpageshadow="2"
     inkscape:pageopacity="0.0"
     inkscape:pagecheckerboard="0"
     inkscape:deskcolor="#d1d1d1"
     showgrid="false"
     inkscape:zoom="0.90509668"
     inkscape:cx="323.1699"
     inkscape:cy="389.46116"
     inkscape:window-width="1920"
     inkscape:window-height="1008"
     inkscape:window-x="0"
     inkscape:window-y="0"
     inkscape:window-maximized="1"
     inkscape:current-layer="g8"
     showguides="true" /><g
     inkscape:groupmode="layer"
     inkscape:label="Image"
     id="g8"
     transform="translate(-7256.3292,-3075.4998)"><g
       id="g50155"><circle
         style="fill:#e83f11;fill-opacity:1;stroke-width:175.21"
         id="path761-70-1-2-6"
         cx="7506.3291"
         cy="3325.4998"
         r="249.99998" /><circle
         style="fill:url(#radialGradient3641-0-9-5);fill-opacity:1;stroke-width:175.21"
         id="path761-70-3-7-9-8"
         cx="7506.3291"
         cy="3325.4998"
         r="249.99998" /><circle
         style="fill:url(#radialGradient3641-0-9-6-44);fill-opacity:1;stroke-width:175.21"
         id="path761-70-3-7-9-9-8"
         cx="7659.2598"
         cy="-2956.2927"
         r="249.99998"
         transform="rotate(45)" /><circle
         style="fill:url(#radialGradient3641-1-9-3-3);fill-opacity:1;stroke-width:175.21"
         id="path761-70-3-0-8-8-4"
         cx="-7001.707"
         cy="-4287.1934"
         r="249.99998"
         transform="rotate(172.41517)" /><ellipse
         style="fill:#ffffff;fill-opacity:0.1;stroke-width:1.78738"
         id="path16255-3"
         cx="8003.1929"
         cy="-917.65747"
         rx="70.660774"
         ry="92.768997"
         transform="rotate(30)" /></g><g
       id="g3"
       transform="matrix(2.5528361,0,0,2.5528361,7321.0088,3130.6993)"
       style="fill:#1a1a1a"><path
         id="path2-3"
         style="fill:#1a1a1a;fill-opacity:1;stroke-width:1.30632"
         d="M 73.510606,7.6985 C 57.388666,16.755683 50.478433,68.106398 50.426589,94.391905 50.903836,124.089 62.247834,148.05084 75.764106,147.91302 89.280517,147.7753 99.850668,123.58925 99.373382,93.891723 98.343268,68.585603 89.550018,15.509348 73.510606,7.6985 Z m 0.475116,44.790199 c 10.580394,5.152426 16.381084,40.164292 17.060601,56.857471 0.314832,19.58997 -6.657792,35.54486 -15.573885,35.63564 -8.916018,0.091 -16.398695,-15.71601 -16.713515,-35.30569 0.03422,-17.339238 4.591967,-51.212851 15.226799,-57.187421 z" /><path
         id="path1-7-9"
         style="fill:#1a1a1a;stroke-width:0.31301"
         d="M 53.895129,2.283726 C 41.038652,20.274851 32.821238,48.255074 33.87631,70.447622 c 1.083738,5.980679 -1.04962,13.026982 3.681452,17.809274 l 0.0027,0.0077 c 1.204781,1.151043 2.733798,1.649578 4.377006,1.611358 3.621264,-0.420798 6.142943,-4.853695 5.632234,-9.901017 -0.632668,-6.2523 -5.10533,-5.175794 -5.937476,-22.678073 C 40.824934,40.31003 45.466843,19.485751 53.895089,2.2837834 Z"
         sodipodi:nodetypes="cccccccc" /><path
         id="path1-7-9-0"
         style="fill:#1a1a1a;stroke-width:0.211617"
         d="m 91.297981,15.787274 c 10.345359,10.219273 16.957739,26.11253 16.108749,38.718285 -0.87206,3.39713 0.8446,7.399555 -2.9624,10.115981 l -0.002,0.0043 c -0.96945,0.653816 -2.19982,0.936985 -3.52209,0.915279 -2.913947,-0.239011 -4.943091,-2.756977 -4.532134,-5.623941 0.509123,-3.551391 4.108184,-2.939917 4.777794,-12.881518 0.64958,-9.648806 -3.08567,-21.477361 -9.867708,-31.248379 z"
         sodipodi:nodetypes="cccccccc" /><path
         id="path1-7-9-6"
         style="fill:#1a1a1a;stroke-width:0.0982731"
         d="m 95.666018,83.767461 c 3.205489,6.158205 4.529562,15.217688 3.225654,22.070199 -0.599885,1.81155 -0.246566,4.09582 -1.927597,5.37442 l -9.84e-4,0.003 c -0.425151,0.30484 -0.922398,0.39257 -1.431531,0.30844 -1.107223,-0.29007 -1.696185,-1.779 -1.315476,-3.32557 0.471691,-1.9158 1.814694,-1.38448 2.843046,-6.78875 0.997937,-5.245133 0.470687,-11.922833 -1.392915,-17.640985 z"
         sodipodi:nodetypes="cccccccc" /><g
         id="g2"
         transform="matrix(1.276951,0,0,1.276951,33.750758,-32.297757)"
         style="fill:#1a1a1a"><path
           id="path1"
           style="fill:#1a1a1a;stroke-width:0.264583"
           d="m 56.417163,81.959101 a 38.667103,28.275322 89.455491 0 1 1.03878,9.901082 A 38.667103,28.275322 89.455491 0 1 29.549417,130.79455 38.667103,28.275322 89.455491 0 1 5.298103,112.63049 38.667103,28.275322 89.455491 0 0 32.901299,141.12584 38.667103,28.275322 89.455491 0 0 60.807831,102.19147 38.667103,28.275322 89.455491 0 0 56.417163,81.959101 Z" /><path
           id="path1-7"
           style="fill:#1a1a1a;stroke-width:0.245123"
           d="M 25.281216,60.709598 A 20.571444,45.617302 16.254982 0 0 9.60417,114.08958 a 20.571444,45.617302 16.254982 0 0 3.658707,15.52574 15.684279,26.792646 22.45758 0 1 4.718377,-13.29965 20.571444,45.617302 16.254982 0 1 -2.303112,-12.52458 20.571444,45.617302 16.254982 0 1 9.603074,-43.081492 z" /><path
           id="path1-5"
           style="fill:#1a1a1a;stroke-width:0.217055"
           d="M 2.812903,98.126439 A 36.954998,19.910906 77.091128 0 0 5.683147,107.15464 36.954998,19.910906 77.091128 0 0 35.357095,126.22282 36.954998,19.910906 77.091128 0 0 42.934729,98.181323 36.954998,19.910906 77.091128 0 1 37.048521,136.80834 36.954998,19.910906 77.091128 0 1 7.374573,117.74015 36.954998,19.910906 77.091128 0 1 2.812898,98.126438 Z" /><path
           id="path1-5-5"
           style="fill:#1a1a1a;stroke-width:0.217055"
           d="m 40.814794,86.938874 a 19.910906,36.954998 56.998395 0 0 -7.492679,5.797107 19.910906,36.954998 56.998395 0 0 -7.713445,34.418629 19.910906,36.954998 56.998395 0 0 28.938054,-2.51695 19.910906,36.954998 56.998395 0 1 -38.298235,7.74199 19.910906,36.954998 56.998395 0 1 7.713444,-34.418629 19.910906,36.954998 56.998395 0 1 16.852861,-11.022147 z" /></g><path
         id="path1-7-9-8"
         style="fill:#1a1a1a;stroke-width:0.119176"
         d="M 65.60133,4.085926e-5 C 63.450734,2.7044481 57.97641,10.152128 61.533985,11.76254 c 0.78144,0.35514 1.323574,1.089277 1.434128,1.940488 2.16e-4,1.1e-4 4.3e-4,1.65e-4 6.16e-4,2.79e-4 -1.07e-4,3.29e-4 -3.09e-4,5.89e-4 -4.16e-4,9.18e-4 0.06097,0.457781 -0.0069,0.923495 -0.196052,1.344819 -0.565599,1.249523 -2.037052,1.803913 -3.286561,1.238278 C 58.907368,16.048233 58.451163,15.639554 58.208281,15.053481 54.278969,6.8511218 58.681605,4.4807662 65.60132,0 Z"
         sodipodi:nodetypes="cccccccccc" /></g></g></svg>
