<?xml version="1.0" encoding="UTF-8" standalone="no"?>
<!-- Created with Inkscape (http://www.inkscape.org/) -->

<svg
   version="1.1"
   id="svg2"
   width="499.99997"
   height="499.99997"
   viewBox="0 0 499.99998 499.99996"
   sodipodi:docname="PlantIcon.svg"
   inkscape:version="1.4.2 (ebf0e940d0, 2025-05-08)"
   xml:space="preserve"
   inkscape:export-filename="EarthIcon.png"
   inkscape:export-xdpi="25.0746"
   inkscape:export-ydpi="25.0746"
   xmlns:inkscape="http://www.inkscape.org/namespaces/inkscape"
   xmlns:sodipodi="http://sodipodi.sourceforge.net/DTD/sodipodi-0.dtd"
   xmlns:xlink="http://www.w3.org/1999/xlink"
   xmlns="http://www.w3.org/2000/svg"
   xmlns:svg="http://www.w3.org/2000/svg"><defs
     id="defs6"><inkscape:path-effect
       effect="copy_rotate"
       starting_point="7100.0528,331.44966"
       origin="7100.0528,1118.7532"
       id="path-effect19600"
       is_visible="true"
       lpeversion="1.2"
       lpesatellites=""
       method="normal"
       num_copies="6"
       starting_angle="90"
       rotation_angle="60"
       gap="-0.01"
       copies_to_360="true"
       mirror_copies="false"
       split_items="false"
       link_styles="false" /><inkscape:path-effect
       effect="copy_rotate"
       starting_point="7435.3311,1787.9496"
       origin="6913.2085,1787.9496"
       id="path-effect19580"
       is_visible="true"
       lpeversion="1.2"
       lpesatellites=""
       method="normal"
       num_copies="6"
       starting_angle="0"
       rotation_angle="60"
       gap="-0.01"
       copies_to_360="true"
       mirror_copies="false"
       split_items="false"
       link_styles="false" /><inkscape:path-effect
       effect="gears"
       id="path-effect19560"
       is_visible="true"
       lpeversion="1"
       teeth="10"
       phi="5"
       min_radius="5" /><inkscape:path-effect
       effect="gears"
       id="path-effect19477"
       is_visible="true"
       lpeversion="1"
       teeth="10"
       phi="5"
       min_radius="5" /><inkscape:path-effect
       effect="gears"
       id="path-effect19329"
       is_visible="true"
       lpeversion="1"
       teeth="10"
       phi="5"
       min_radius="5" /><inkscape:path-effect
       effect="gears"
       id="path-effect19311"
       is_visible="true"
       lpeversion="1"
       teeth="4"
       phi="4.6"
       min_radius="3.61" /><linearGradient
       inkscape:collect="always"
       id="linearGradient13977"><stop
         style="stop-color:#ffffff;stop-opacity:1;"
         offset="0"
         id="stop13973" /><stop
         style="stop-color:#ffffff;stop-opacity:0;"
         offset="1"
         id="stop13975" /></linearGradient><inkscape:perspective
       sodipodi:type="inkscape:persp3d"
       inkscape:vp_x="0 : -2506.906 : 1"
       inkscape:vp_y="0 : 1000 : 0"
       inkscape:vp_z="10669.638 : -2506.906 : 1"
       inkscape:persp3d-origin="5334.8189 : -3509.208 : 1"
       id="perspective29885" /><inkscape:path-effect
       effect="perspective-envelope"
       up_left_point="6533.1138,1130.2775"
       up_right_point="7054.3842,1130.2775"
       down_left_point="5100.996,1282.4426"
       down_right_point="7054.3842,1581.711"
       id="path-effect24672"
       is_visible="true"
       lpeversion="1"
       deform_type="perspective"
       horizontal_mirror="false"
       vertical_mirror="false"
       overflow_perspective="false" /><inkscape:path-effect
       effect="perspective-envelope"
       up_left_point="3963.8455,4088.9277"
       up_right_point="9662.5124,4088.9277"
       down_left_point="5946.1766,4724.5946"
       down_right_point="7650.4435,4730.4506"
       id="path-effect21744"
       is_visible="true"
       lpeversion="1"
       deform_type="perspective"
       horizontal_mirror="false"
       vertical_mirror="false"
       overflow_perspective="false" /><linearGradient
       inkscape:collect="always"
       id="linearGradient8394"><stop
         style="stop-color:#000000;stop-opacity:1;"
         offset="0"
         id="stop8390" /><stop
         style="stop-color:#000000;stop-opacity:0;"
         offset="1"
         id="stop8392" /></linearGradient><radialGradient
       inkscape:collect="always"
       xlink:href="#linearGradient8394"
       id="radialGradient3641-0-9-3-3"
       cx="748.52399"
       cy="897.76459"
       fx="748.52399"
       fy="897.76459"
       r="23.523617"
       gradientUnits="userSpaceOnUse"
       gradientTransform="matrix(22.64762,-17.679006,13.072425,16.746379,-20864.901,1797.1396)" /><radialGradient
       inkscape:collect="always"
       xlink:href="#linearGradient8394"
       id="radialGradient3641-0-9-6-4-6"
       cx="748.52399"
       cy="897.76459"
       fx="748.52399"
       fy="897.76459"
       r="23.523617"
       gradientUnits="userSpaceOnUse"
       gradientTransform="matrix(22.781472,-17.506183,7.1351841,9.2852918,-15481.919,2084.2846)" /><radialGradient
       inkscape:collect="always"
       xlink:href="#linearGradient13977"
       id="radialGradient3641-1-9-3-7-1"
       cx="746.43372"
       cy="904.35248"
       fx="746.43372"
       fy="904.35248"
       r="23.523617"
       gradientUnits="userSpaceOnUse"
       gradientTransform="matrix(10.88632,-10.957387,15.070935,14.97319,-28366.249,-9253.2199)" /></defs><sodipodi:namedview
     id="namedview4"
     pagecolor="#ffffff"
     bordercolor="#666666"
     borderopacity="1.0"
     inkscape:showpageshadow="2"
     inkscape:pageopacity="0.0"
     inkscape:pagecheckerboard="0"
     inkscape:deskcolor="#d1d1d1"
     showgrid="false"
     inkscape:zoom="0.22627417"
     inkscape:cx="-541.37863"
     inkscape:cy="-46.403883"
     inkscape:window-width="1920"
     inkscape:window-height="1008"
     inkscape:window-x="0"
     inkscape:window-y="0"
     inkscape:window-maximized="1"
     inkscape:current-layer="g8"
     showguides="true" /><g
     inkscape:groupmode="layer"
     inkscape:label="Image"
     id="g8"
     transform="translate(-7256.3292,-3075.4998)"><circle
       style="fill:#008d08;fill-opacity:1;stroke-width:175.21"
       id="path761-70-1-2-0-7"
       cx="7506.3296"
       cy="3325.5"
       r="249.99998" /><circle
       style="fill:url(#radialGradient3641-0-9-3-3);fill-opacity:1;stroke-width:175.21"
       id="path761-70-3-7-9-3-6"
       cx="7506.3296"
       cy="3325.5"
       r="249.99998" /><circle
       style="fill:url(#radialGradient3641-0-9-6-4-6);fill-opacity:1;stroke-width:175.21"
       id="path761-70-3-7-9-9-6-5"
       cx="7659.2598"
       cy="-2956.2927"
       r="249.99998"
       transform="rotate(45)" /><circle
       style="fill:url(#radialGradient3641-1-9-3-7-1);fill-opacity:1;stroke-width:175.21"
       id="path761-70-3-0-8-8-1-6"
       cx="-7001.707"
       cy="-4287.1938"
       r="249.99998"
       transform="rotate(172.41517)" /><ellipse
       style="fill:#ffffff;fill-opacity:0.15;stroke-width:1.78738"
       id="path16255-0-4"
       cx="8003.1938"
       cy="-917.65765"
       rx="70.660774"
       ry="92.768997"
       transform="rotate(30)" /><g
       id="g3"
       transform="matrix(0.79086552,-0.45660642,0.45660642,0.79086552,504.97434,4211.8132)"><path
         id="path17644-5-2"
         style="fill:#000000;fill-opacity:1;stroke-width:0.408505"
         d="m 7236.3572,2979.9774 c -27.9193,51.8475 -108.2576,116.4765 -108.2576,116.4765 -18.6168,12.66 -49.3282,33.5195 -23.6502,50.9744 24.7732,15.5556 45.9789,1.7181 51.6588,-18.425 z"
         sodipodi:nodetypes="scccs" /><path
         id="path17644-5-2-8"
         style="fill:#000000;fill-opacity:1;stroke-width:0.369309"
         d="m 7223.0989,2876.5512 c -25.3074,46.7487 -98.13,105.0219 -98.13,105.0219 -16.8752,11.415 -44.7136,30.2231 -21.4378,45.9614 22.4557,14.0259 41.6776,1.5492 46.8261,-16.613 z"
         sodipodi:nodetypes="scccs" /><path
         id="path17644-5-2-8-9"
         style="fill:#000000;fill-opacity:1;stroke-width:0.271999"
         d="m 7195.4776,2802.3464 c -18.5601,34.5773 -71.9673,77.6786 -71.9673,77.6786 -12.376,8.443 -32.7924,22.3543 -15.7222,33.995 16.4687,10.3741 30.5658,1.1458 34.3417,-12.2877 z"
         sodipodi:nodetypes="scccs" /><path
         id="path1"
         style="fill:#000000;fill-opacity:1;stroke-width:1.13551"
         d="m 7128.7179,2747.5174 c -29.7278,22.6558 -82.2428,47.2282 -82.6875,105.8613 -17.86,33.1531 -27.7191,75.8912 -27.7188,120.1582 0,23.7688 23.0136,47.5812 8.3809,69.2695 -5.5307,10.3716 -8.3783,21.4854 -8.3809,32.709 -5e-4,40.741 36.6862,74.8374 85.836,83.5 a 24.779211,47.290619 0 0 0 -0.209,6.1309 24.779211,47.290619 0 0 0 24.7793,47.291 24.779211,47.290619 0 0 0 24.7793,-47.291 24.779211,47.290619 0 0 0 -0.209,-6.1309 c 49.1499,-8.6625 85.8364,-42.759 85.8359,-83.5 0,-11.2235 -2.8489,-22.3373 -8.3789,-32.709 -14.0011,-25.871 8.3771,-45.5009 8.3789,-69.2695 3e-4,-44.2669 -9.8588,-87.0051 -27.7187,-120.1582 -0.4447,-58.6331 -50.6159,-80.0805 -82.6875,-105.8613 z m 0,35.1719 c 25.3768,22.3937 65.0759,41.0233 65.4277,91.9531 14.1317,28.7974 21.9319,65.9202 21.9316,104.3711 0,20.6459 -17.7073,37.6959 -6.6289,60.1679 4.3756,9.009 6.6289,18.6633 6.6289,28.4122 5e-4,41.0774 -39.1119,74.3772 -87.3593,74.3769 -48.2474,3e-4 -87.3599,-33.2993 -87.3594,-74.3769 0,-9.749 2.2547,-19.4033 6.6309,-28.4122 11.5782,-18.8389 -6.6309,-39.5218 -6.6309,-60.1679 -2e-4,-38.4511 7.7998,-75.5737 21.9316,-104.3711 0.3519,-50.9298 41.9056,-72.2738 65.4278,-91.9531 z" /><path
         id="path3"
         style="fill:#000000;fill-opacity:1;stroke-width:0.589223"
         d="m 7128.7218,2772.6462 c -2.1394,0.6904 -8.0179,4.9342 -25.2316,17.9286 -29.7407,22.4509 -43.3625,43.7699 -45.4228,71.0944 -0.4529,6.0065 -0.6621,6.7493 -3.8962,13.7823 -12.4056,26.9776 -20.1803,64.3751 -20.1912,97.116 0,9.6833 0.9146,14.2365 5.7783,28.6438 6.8065,20.1623 7.1253,26.8355 1.7929,37.5674 -14.2205,28.62 -8.1756,58.5433 16.4268,81.3219 15.5585,14.405 36.4371,23.4113 59.6762,25.7421 3.6707,0.3681 7.3672,0.5453 11.0676,0.5387 z" /></g></g></svg>
