<?xml version="1.0" encoding="UTF-8" standalone="no"?>
<!-- Created with Inkscape (http://www.inkscape.org/) -->

<svg
   version="1.1"
   id="svg2"
   width="499.99997"
   height="499.99997"
   viewBox="0 0 499.99998 499.99996"
   sodipodi:docname="SpiritIcon.svg"
   inkscape:version="1.4.2 (ebf0e940d0, 2025-05-08)"
   xml:space="preserve"
   inkscape:export-filename="EarthIcon.png"
   inkscape:export-xdpi="25.0746"
   inkscape:export-ydpi="25.0746"
   xmlns:inkscape="http://www.inkscape.org/namespaces/inkscape"
   xmlns:sodipodi="http://sodipodi.sourceforge.net/DTD/sodipodi-0.dtd"
   xmlns:xlink="http://www.w3.org/1999/xlink"
   xmlns="http://www.w3.org/2000/svg"
   xmlns:svg="http://www.w3.org/2000/svg"><defs
     id="defs6"><inkscape:path-effect
       effect="copy_rotate"
       starting_point="7100.0528,331.44966"
       origin="7100.0528,1118.7532"
       id="path-effect19600"
       is_visible="true"
       lpeversion="1.2"
       lpesatellites=""
       method="normal"
       num_copies="6"
       starting_angle="90"
       rotation_angle="60"
       gap="-0.01"
       copies_to_360="true"
       mirror_copies="false"
       split_items="false"
       link_styles="false" /><inkscape:path-effect
       effect="copy_rotate"
       starting_point="7435.3311,1787.9496"
       origin="6913.2085,1787.9496"
       id="path-effect19580"
       is_visible="true"
       lpeversion="1.2"
       lpesatellites=""
       method="normal"
       num_copies="6"
       starting_angle="0"
       rotation_angle="60"
       gap="-0.01"
       copies_to_360="true"
       mirror_copies="false"
       split_items="false"
       link_styles="false" /><inkscape:path-effect
       effect="gears"
       id="path-effect19560"
       is_visible="true"
       lpeversion="1"
       teeth="10"
       phi="5"
       min_radius="5" /><inkscape:path-effect
       effect="gears"
       id="path-effect19477"
       is_visible="true"
       lpeversion="1"
       teeth="10"
       phi="5"
       min_radius="5" /><inkscape:path-effect
       effect="gears"
       id="path-effect19329"
       is_visible="true"
       lpeversion="1"
       teeth="10"
       phi="5"
       min_radius="5" /><inkscape:path-effect
       effect="gears"
       id="path-effect19311"
       is_visible="true"
       lpeversion="1"
       teeth="4"
       phi="4.6"
       min_radius="3.61" /><linearGradient
       inkscape:collect="always"
       id="linearGradient13977"><stop
         style="stop-color:#ffffff;stop-opacity:1;"
         offset="0"
         id="stop13973" /><stop
         style="stop-color:#ffffff;stop-opacity:0;"
         offset="1"
         id="stop13975" /></linearGradient><inkscape:perspective
       sodipodi:type="inkscape:persp3d"
       inkscape:vp_x="0 : -2506.906 : 1"
       inkscape:vp_y="0 : 1000 : 0"
       inkscape:vp_z="10669.638 : -2506.906 : 1"
       inkscape:persp3d-origin="5334.8189 : -3509.208 : 1"
       id="perspective29885" /><inkscape:path-effect
       effect="perspective-envelope"
       up_left_point="6533.1138,1130.2775"
       up_right_point="7054.3842,1130.2775"
       down_left_point="5100.996,1282.4426"
       down_right_point="7054.3842,1581.711"
       id="path-effect24672"
       is_visible="true"
       lpeversion="1"
       deform_type="perspective"
       horizontal_mirror="false"
       vertical_mirror="false"
       overflow_perspective="false" /><inkscape:path-effect
       effect="perspective-envelope"
       up_left_point="3963.8455,4088.9277"
       up_right_point="9662.5124,4088.9277"
       down_left_point="5946.1766,4724.5946"
       down_right_point="7650.4435,4730.4506"
       id="path-effect21744"
       is_visible="true"
       lpeversion="1"
       deform_type="perspective"
       horizontal_mirror="false"
       vertical_mirror="false"
       overflow_perspective="false" /><linearGradient
       inkscape:collect="always"
       id="linearGradient8394"><stop
         style="stop-color:#000000;stop-opacity:1;"
         offset="0"
         id="stop8390" /><stop
         style="stop-color:#000000;stop-opacity:0;"
         offset="1"
         id="stop8392" /></linearGradient><radialGradient
       inkscape:collect="always"
       xlink:href="#linearGradient8394"
       id="radialGradient3641-0-9-3"
       cx="748.52399"
       cy="897.76459"
       fx="748.52399"
       fy="897.76459"
       r="23.523617"
       gradientUnits="userSpaceOnUse"
       gradientTransform="matrix(22.64762,-17.679006,13.072425,16.746379,-20864.901,1797.1397)" /><radialGradient
       inkscape:collect="always"
       xlink:href="#linearGradient8394"
       id="radialGradient3641-0-9-6-4"
       cx="748.52399"
       cy="897.76459"
       fx="748.52399"
       fy="897.76459"
       r="23.523617"
       gradientUnits="userSpaceOnUse"
       gradientTransform="matrix(22.781472,-17.506183,7.1351841,9.2852918,-15481.919,2084.2849)" /><radialGradient
       inkscape:collect="always"
       xlink:href="#linearGradient13977"
       id="radialGradient3641-1-9-3-7"
       cx="746.43372"
       cy="904.35248"
       fx="746.43372"
       fy="904.35248"
       r="23.523617"
       gradientUnits="userSpaceOnUse"
       gradientTransform="matrix(10.88632,-10.957387,15.070935,14.97319,-28366.248,-9253.2198)" /></defs><sodipodi:namedview
     id="namedview4"
     pagecolor="#ffffff"
     bordercolor="#666666"
     borderopacity="1.0"
     inkscape:showpageshadow="2"
     inkscape:pageopacity="0.0"
     inkscape:pagecheckerboard="0"
     inkscape:deskcolor="#d1d1d1"
     showgrid="false"
     inkscape:zoom="0.11313709"
     inkscape:cx="2541.1649"
     inkscape:cy="-481.71647"
     inkscape:window-width="1920"
     inkscape:window-height="1008"
     inkscape:window-x="0"
     inkscape:window-y="0"
     inkscape:window-maximized="1"
     inkscape:current-layer="g8"
     showguides="true" /><g
     inkscape:groupmode="layer"
     inkscape:label="Image"
     id="g8"
     transform="translate(-7256.3292,-3075.4998)"><g
       id="g1"><circle
         style="fill:#1e717a;fill-opacity:1;stroke-width:175.21"
         id="path761-70-1-2-0"
         cx="7506.3291"
         cy="3325.5"
         r="249.99998" /><circle
         style="fill:url(#radialGradient3641-0-9-3);fill-opacity:1;stroke-width:175.21"
         id="path761-70-3-7-9-3"
         cx="7506.3291"
         cy="3325.5"
         r="249.99998" /><circle
         style="fill:url(#radialGradient3641-0-9-6-4);fill-opacity:1;stroke-width:175.21"
         id="path761-70-3-7-9-9-6"
         cx="7659.2593"
         cy="-2956.2927"
         r="249.99998"
         transform="rotate(45)" /><circle
         style="fill:url(#radialGradient3641-1-9-3-7);fill-opacity:1;stroke-width:175.21"
         id="path761-70-3-0-8-8-1"
         cx="-7001.707"
         cy="-4287.1938"
         r="249.99998"
         transform="rotate(172.41517)" /><ellipse
         style="fill:#ffffff;fill-opacity:0.15;stroke-width:1.78738"
         id="path16255-0"
         cx="8003.1934"
         cy="-917.65717"
         rx="70.660774"
         ry="92.768997"
         transform="rotate(30)" /><g
         id="g8355"
         transform="matrix(3.6585868,2.8767617,-2.8767617,3.6585868,7460.087,2235.714)"
         style="fill:#000000;fill-opacity:1"><path
           id="path7783-3"
           style="fill:#000000;fill-opacity:1;stroke-width:2.11693"
           d="m 152.29613,139.87581 c -1.63701,-0.77665 -4.03008,-1.10732 -6.98185,-0.68578 -3.79695,0.54226 -7.88487,2.24115 -11.52776,4.7976 -3.6271,2.54532 -6.28633,5.55758 -7.9095,8.31336 -1.61484,2.74157 -2.10957,5.02244 -2.04848,6.71468 0.0605,1.67693 0.66077,2.95998 1.39878,4.09467 0.70528,1.08439 1.79548,2.40033 2.9715,3.52366 1.24853,1.19259 2.73606,2.30934 4.47289,3.04336 1.75061,0.73985 3.55392,1.00648 5.39109,0.8087 1.80243,-0.19384 3.52704,-0.82474 5.08054,-1.67777 1.52975,-0.83999 3.00288,-1.95667 4.17232,-3.24413 1.20493,-1.32654 2.12811,-2.87171 2.65148,-4.7073 0.53305,-1.86948 0.57318,-3.74655 0.37473,-5.61412 -0.19101,-1.79748 -0.57925,-3.32444 -0.55677,-4.43959 0.0236,-1.17063 0.48225,-1.79995 1.48536,-2.66593 0.94892,-0.81926 2.29846,-1.79691 3.03753,-3.19062 0.7266,-1.37011 0.72931,-3.02477 -0.81907,-4.3203 -0.33544,-0.28073 -0.73442,-0.53302 -1.19275,-0.75053 z m -12.469,12.68136 a 6.6055006,6.6055006 45 0 1 3.19645,8.77786 6.6055006,6.6055006 45 0 1 -8.77775,3.19623 6.6055006,6.6055006 45 0 1 -3.19634,-8.77752 6.6055006,6.6055006 45 0 1 8.77764,-3.19657 z" /><path
           id="path7783-3-5"
           style="fill:#000000;fill-opacity:1;stroke-width:2.11693"
           d="m 185.08719,196.32547 c 1.49109,-1.02938 2.97399,-2.93649 4.08481,-5.70358 1.42887,-3.55937 2.00155,-7.94907 1.60904,-12.38212 -0.39082,-4.41382 -1.66984,-8.22292 -3.24483,-11.00651 -1.56687,-2.76926 -3.29478,-4.33816 -4.79084,-5.13138 -1.48251,-0.78607 -2.89381,-0.90774 -4.24548,-0.83596 -1.29175,0.0686 -2.97649,0.35478 -4.53733,0.81157 -1.65708,0.48497 -3.36797,1.21482 -4.87208,2.35196 -1.51602,1.14615 -2.64859,2.57455 -3.39589,4.26447 -0.73334,1.65786 -1.04929,3.46687 -1.08728,5.23876 -0.0374,1.7448 0.19308,3.57891 0.72334,5.2354 0.54635,1.70677 1.42292,3.27886 2.75087,4.64992 1.35247,1.39638 2.95801,2.36966 4.6746,3.13159 1.65216,0.73332 3.16868,1.16057 4.12318,1.73761 1.002,0.60576 1.31767,1.31761 1.56614,2.6193 0.23504,1.23142 0.40693,2.88897 1.24439,4.22589 0.82329,1.31428 2.25488,2.14397 4.15103,1.45081 0.41081,-0.15018 0.82882,-0.3695 1.24633,-0.65773 z m -4.74789,-17.13916 a 6.6055006,6.6055006 45 0 1 -9.20009,-1.62072 6.6055006,6.6055006 45 0 1 1.62087,-9.19986 6.6055006,6.6055006 45 0 1 9.19973,1.62065 6.6055006,6.6055006 45 0 1 -1.62051,9.19993 z" /><path
           id="path7783-3-5-6"
           style="fill:#000000;fill-opacity:1;stroke-width:2.11693"
           d="m 120.02073,196.30908 c 0.14592,1.806 1.05606,4.04381 2.89704,6.38935 2.36807,3.01712 5.88332,5.70792 9.91871,7.58452 4.01789,1.86846 7.95618,2.66533 11.15433,2.69315 3.18169,0.0277 5.40435,-0.68428 6.83933,-1.58329 1.422,-0.89088 2.23302,-2.05224 2.84669,-3.25872 0.58647,-1.15299 1.18101,-2.7551 1.56583,-4.33523 0.40855,-1.67755 0.63192,-3.52417 0.39918,-5.39531 -0.23458,-1.886 -0.90532,-3.58103 -1.9952,-5.07318 -1.06906,-1.46402 -2.47775,-2.64214 -3.99325,-3.56099 -1.49234,-0.90478 -3.19596,-1.62224 -4.89566,-1.99126 -1.75127,-0.38023 -3.55102,-0.40714 -5.40237,0.0574 -1.88555,0.47309 -3.5312,1.37688 -5.04934,2.48252 -1.46115,1.06416 -2.58942,2.16387 -3.56641,2.70198 -1.02559,0.56487 -1.79992,0.48234 -3.05145,0.0467 -1.18395,-0.41216 -2.7054,-1.09208 -4.28192,-1.03527 -1.54986,0.0558 -2.98419,0.8808 -3.33196,2.86949 -0.0753,0.43086 -0.0944,0.90253 -0.0536,1.40821 z m 17.2169,4.45778 a 6.6055006,6.6055006 45 0 1 6.00361,-7.15714 6.6055006,6.6055006 45 0 1 7.15689,6.00365 6.6055006,6.6055006 45 0 1 -6.00339,7.15686 6.6055006,6.6055006 45 0 1 -7.15711,-6.00337 z" /></g></g></g></svg>
