<?xml version="1.0" encoding="UTF-8" standalone="no"?>
<!-- Created with Inkscape (http://www.inkscape.org/) -->

<svg
   width="200mm"
   height="200mm"
   viewBox="0 0 200 200"
   version="1.1"
   id="svg5"
   inkscape:version="1.4.2 (ebf0e940d0, 2025-05-08)"
   sodipodi:docname="BurnIcon.svg"
   inkscape:export-filename="BurnIcon.png"
   inkscape:export-xdpi="96"
   inkscape:export-ydpi="96"
   xmlns:inkscape="http://www.inkscape.org/namespaces/inkscape"
   xmlns:sodipodi="http://sodipodi.sourceforge.net/DTD/sodipodi-0.dtd"
   xmlns="http://www.w3.org/2000/svg"
   xmlns:svg="http://www.w3.org/2000/svg">
  <sodipodi:namedview
     id="namedview7"
     pagecolor="#ffffff"
     bordercolor="#666666"
     borderopacity="1.0"
     inkscape:showpageshadow="2"
     inkscape:pageopacity="0.0"
     inkscape:pagecheckerboard="0"
     inkscape:deskcolor="#d1d1d1"
     inkscape:document-units="mm"
     showgrid="false"
     inkscape:zoom="0.096768905"
     inkscape:cx="862.88049"
     inkscape:cy="191.17711"
     inkscape:window-width="1920"
     inkscape:window-height="1008"
     inkscape:window-x="0"
     inkscape:window-y="0"
     inkscape:window-maximized="1"
     inkscape:current-layer="layer1" />
  <defs
     id="defs2">
    <inkscape:path-effect
       effect="envelope"
       id="path-effect1168"
       is_visible="true"
       lpeversion="1"
       yy="true"
       xx="true"
       bendpath1="M 78.198582,112.96501 H 139.89869"
       bendpath2="m 139.89869,112.96501 v 83.99772"
       bendpath3="M 78.198582,196.96273 H 139.89869"
       bendpath4="m 78.198582,112.96501 v 83.99772" />
    <inkscape:path-effect
       effect="envelope"
       id="path-effect1019"
       is_visible="true"
       lpeversion="1"
       yy="true"
       xx="true"
       bendpath1="M 78.198582,112.96501 H 139.89869"
       bendpath2="m 139.89869,112.96501 v 83.99772"
       bendpath3="M 78.198582,196.96273 H 139.89869"
       bendpath4="m 78.198582,112.96501 v 83.99772" />
    <inkscape:path-effect
       effect="attach_path"
       id="path-effect1017"
       lpeversion="1"
       is_visible="true"
       startpath=""
       startposition="0"
       startcurvestart="0,0 , 20,0"
       startcurveend="0,0 , 20,0"
       endpath=""
       endposition="0"
       endcurvestart="0,0 , 20,0"
       endcurveend="0,0 , 20,0" />
  </defs>
  <g
     inkscape:label="Layer 1"
     inkscape:groupmode="layer"
     id="layer1"
     transform="translate(25,21.151054)">
    <g
       id="g3"
       transform="matrix(1.3485111,0,0,1.3485111,-22.893701,-20.883039)">
      <path
         id="path2-3"
         style="fill:#ff7f2a;fill-opacity:1;stroke-width:1.30632"
         d="M 73.510606,7.6985 C 57.388666,16.755683 50.478433,68.106398 50.426589,94.391905 50.903836,124.089 62.247834,148.05084 75.764106,147.91302 89.280517,147.7753 99.850668,123.58925 99.373382,93.891723 98.343268,68.585603 89.550018,15.509348 73.510606,7.6985 Z m 0.475116,44.790199 c 10.580394,5.152426 16.381084,40.164292 17.060601,56.857471 0.314832,19.58997 -6.657792,35.54486 -15.573885,35.63564 -8.916018,0.091 -16.398695,-15.71601 -16.713515,-35.30569 0.03422,-17.339238 4.591967,-51.212851 15.226799,-57.187421 z" />
      <path
         id="path1-7-9"
         style="fill:#ff6600;stroke-width:0.31301"
         d="M 53.895129,2.283726 C 41.038652,20.274851 32.821238,48.255074 33.87631,70.447622 c 1.083738,5.980679 -1.04962,13.026982 3.681452,17.809274 l 0.0027,0.0077 c 1.204781,1.151043 2.733798,1.649578 4.377006,1.611358 3.621264,-0.420798 6.142943,-4.853695 5.632234,-9.901017 -0.632668,-6.2523 -5.10533,-5.175794 -5.937476,-22.678073 C 40.824934,40.31003 45.466843,19.485751 53.895089,2.2837834 Z"
         sodipodi:nodetypes="cccccccc" />
      <path
         id="path1-7-9-0"
         style="fill:#ff6600;stroke-width:0.211617"
         d="m 91.297981,15.787274 c 10.345359,10.219273 16.957739,26.11253 16.108749,38.718285 -0.87206,3.39713 0.8446,7.399555 -2.9624,10.115981 l -0.002,0.0043 c -0.96945,0.653816 -2.19982,0.936985 -3.52209,0.915279 -2.913947,-0.239011 -4.943091,-2.756977 -4.532134,-5.623941 0.509123,-3.551391 4.108184,-2.939917 4.777794,-12.881518 0.64958,-9.648806 -3.08567,-21.477361 -9.867708,-31.248379 z"
         sodipodi:nodetypes="cccccccc" />
      <path
         id="path1-7-9-6"
         style="fill:#ff6600;stroke-width:0.0982731"
         d="m 95.666018,83.767461 c 3.205489,6.158205 4.529562,15.217688 3.225654,22.070199 -0.599885,1.81155 -0.246566,4.09582 -1.927597,5.37442 l -9.84e-4,0.003 c -0.425151,0.30484 -0.922398,0.39257 -1.431531,0.30844 -1.107223,-0.29007 -1.696185,-1.779 -1.315476,-3.32557 0.471691,-1.9158 1.814694,-1.38448 2.843046,-6.78875 0.997937,-5.245133 0.470687,-11.922833 -1.392915,-17.640985 z"
         sodipodi:nodetypes="cccccccc" />
      <g
         id="g2"
         transform="matrix(1.276951,0,0,1.276951,33.750758,-32.297757)">
        <path
           id="path1"
           style="fill:#ff6600;stroke-width:0.264583"
           d="m 56.417163,81.959101 a 38.667103,28.275322 89.455491 0 1 1.03878,9.901082 A 38.667103,28.275322 89.455491 0 1 29.549417,130.79455 38.667103,28.275322 89.455491 0 1 5.298103,112.63049 38.667103,28.275322 89.455491 0 0 32.901299,141.12584 38.667103,28.275322 89.455491 0 0 60.807831,102.19147 38.667103,28.275322 89.455491 0 0 56.417163,81.959101 Z" />
        <path
           id="path1-7"
           style="fill:#ff6600;stroke-width:0.245123"
           d="M 25.281216,60.709598 A 20.571444,45.617302 16.254982 0 0 9.60417,114.08958 a 20.571444,45.617302 16.254982 0 0 3.658707,15.52574 15.684279,26.792646 22.45758 0 1 4.718377,-13.29965 20.571444,45.617302 16.254982 0 1 -2.303112,-12.52458 20.571444,45.617302 16.254982 0 1 9.603074,-43.081492 z" />
        <path
           id="path1-5"
           style="fill:#ff6600;stroke-width:0.217055"
           d="M 2.812903,98.126439 A 36.954998,19.910906 77.091128 0 0 5.683147,107.15464 36.954998,19.910906 77.091128 0 0 35.357095,126.22282 36.954998,19.910906 77.091128 0 0 42.934729,98.181323 36.954998,19.910906 77.091128 0 1 37.048521,136.80834 36.954998,19.910906 77.091128 0 1 7.374573,117.74015 36.954998,19.910906 77.091128 0 1 2.812898,98.126438 Z" />
        <path
           id="path1-5-5"
           style="fill:#ff6600;stroke-width:0.217055"
           d="m 40.814794,86.938874 a 19.910906,36.954998 56.998395 0 0 -7.492679,5.797107 19.910906,36.954998 56.998395 0 0 -7.713445,34.418629 19.910906,36.954998 56.998395 0 0 28.938054,-2.51695 19.910906,36.954998 56.998395 0 1 -38.298235,7.74199 19.910906,36.954998 56.998395 0 1 7.713444,-34.418629 19.910906,36.954998 56.998395 0 1 16.852861,-11.022147 z" />
      </g>
      <path
         id="path1-7-9-8"
         style="fill:#ff6600;stroke-width:0.119176"
         d="M 65.60133,4.085926e-5 C 63.450734,2.7044481 57.97641,10.152128 61.533985,11.76254 c 0.78144,0.35514 1.323574,1.089277 1.434128,1.940488 2.16e-4,1.1e-4 4.3e-4,1.65e-4 6.16e-4,2.79e-4 -1.07e-4,3.29e-4 -3.09e-4,5.89e-4 -4.16e-4,9.18e-4 0.06097,0.457781 -0.0069,0.923495 -0.196052,1.344819 -0.565599,1.249523 -2.037052,1.803913 -3.286561,1.238278 C 58.907368,16.048233 58.451163,15.639554 58.208281,15.053481 54.278969,6.8511218 58.681605,4.4807662 65.60132,0 Z"
         sodipodi:nodetypes="cccccccccc" />
    </g>
  </g>
</svg>
