<?xml version="1.0" encoding="UTF-8" standalone="no"?>
<!-- Created with Inkscape (http://www.inkscape.org/) -->

<svg
   width="200mm"
   height="200mm"
   viewBox="0 0 200 200"
   version="1.1"
   id="svg5"
   inkscape:version="1.4.2 (ebf0e940d0, 2025-05-08)"
   sodipodi:docname="SpAtkIcon.svg"
   inkscape:export-filename="AtkUpIcon.png"
   inkscape:export-xdpi="96"
   inkscape:export-ydpi="96"
   xmlns:inkscape="http://www.inkscape.org/namespaces/inkscape"
   xmlns:sodipodi="http://sodipodi.sourceforge.net/DTD/sodipodi-0.dtd"
   xmlns="http://www.w3.org/2000/svg"
   xmlns:svg="http://www.w3.org/2000/svg">
  <sodipodi:namedview
     id="namedview7"
     pagecolor="#ffffff"
     bordercolor="#666666"
     borderopacity="1.0"
     inkscape:showpageshadow="2"
     inkscape:pageopacity="0.0"
     inkscape:pagecheckerboard="0"
     inkscape:deskcolor="#d1d1d1"
     inkscape:document-units="mm"
     showgrid="false"
     inkscape:zoom="0.2737038"
     inkscape:cx="-341.61016"
     inkscape:cy="560.82524"
     inkscape:window-width="1920"
     inkscape:window-height="1008"
     inkscape:window-x="0"
     inkscape:window-y="0"
     inkscape:window-maximized="1"
     inkscape:current-layer="layer1" />
  <defs
     id="defs2">
    <inkscape:perspective
       sodipodi:type="inkscape:persp3d"
       inkscape:vp_x="0 : 100 : 1"
       inkscape:vp_y="0 : 1000 : 0"
       inkscape:vp_z="200 : 100 : 1"
       inkscape:persp3d-origin="100 : 66.666667 : 1"
       id="perspective4" />
    <inkscape:path-effect
       effect="envelope"
       id="path-effect1168"
       is_visible="true"
       lpeversion="1"
       yy="true"
       xx="true"
       bendpath1="M 78.198582,112.96501 H 139.89869"
       bendpath2="m 139.89869,112.96501 v 83.99772"
       bendpath3="M 78.198582,196.96273 H 139.89869"
       bendpath4="m 78.198582,112.96501 v 83.99772" />
    <inkscape:path-effect
       effect="envelope"
       id="path-effect1019"
       is_visible="true"
       lpeversion="1"
       yy="true"
       xx="true"
       bendpath1="M 78.198582,112.96501 H 139.89869"
       bendpath2="m 139.89869,112.96501 v 83.99772"
       bendpath3="M 78.198582,196.96273 H 139.89869"
       bendpath4="m 78.198582,112.96501 v 83.99772" />
    <inkscape:path-effect
       effect="attach_path"
       id="path-effect1017"
       lpeversion="1"
       is_visible="true"
       startpath=""
       startposition="0"
       startcurvestart="0,0 , 20,0"
       startcurveend="0,0 , 20,0"
       endpath=""
       endposition="0"
       endcurvestart="0,0 , 20,0"
       endcurveend="0,0 , 20,0" />
    <inkscape:path-effect
       effect="envelope"
       id="path-effect19478"
       is_visible="true"
       lpeversion="1"
       yy="true"
       xx="true"
       bendpath1="m 90.95081,143.83304 h 28.09838"
       bendpath2="m 119.04919,143.83304 v 45.46414"
       bendpath3="m 102.05962,200.68385 -6.448778,17.658"
       bendpath4="m 95.791661,128.78604 10.817479,66.34028"
       bendpath4-nodetypes="cc"
       bendpath3-nodetypes="cc" />
    <inkscape:path-effect
       effect="envelope"
       id="path-effect19143"
       is_visible="true"
       lpeversion="1"
       yy="true"
       xx="true"
       bendpath1="M 181.40747,75.320368 210,75.169849"
       bendpath2="M 231.27403,178.04515 194.63128,93.888225"
       bendpath3="M 160.58405,124.5858 176.03883,90.001511"
       bendpath4="M 160.58405,75.169849 V 124.5858"
       bendpath1-nodetypes="cc"
       bendpath2-nodetypes="cc"
       bendpath3-nodetypes="cc" />
  </defs>
  <g
     inkscape:label="Layer 1"
     inkscape:groupmode="layer"
     id="layer1"
     transform="translate(25,21.151054)">
    <g
       id="g4"
       transform="matrix(-0.25066942,0.93551102,-0.93551102,-0.25066942,165.33767,31.841427)">
      <g
         id="g3"
         transform="translate(-16.405063,-2.0506329)">
        <path
           id="path1-6"
           style="fill:#000000;stroke-width:0.306485"
           d="M 100.43956,-6.0307367 C 75.944802,-11.34411 49.24935,-9.1202532 27.757351,3.0542372 -36.431316,39.41494 -35.704375,132.03781 64.444559,159.21016 c -2.160736,-7.66853 -1.993839,-17.0795 0.465672,-26.25844 0.736943,-2.75044 1.66891,-5.43863 2.777159,-8.0105 C 52.085312,129.32428 49.197076,123.59117 32.14413,87.298937 3.7990544,26.974712 70.201295,-8.9503162 140.55455,11.151883 129.04116,3.0587345 115.13641,-2.8427013 100.43956,-6.0307367 Z"
           sodipodi:nodetypes="sscscscs" />
        <path
           id="path1-6-1"
           style="fill:#b3b3b3;fill-opacity:1;stroke-width:0.306485"
           d="M 99.646176,-4.5910866 C 75.151418,-9.9044603 50.926848,-6.9584901 29.814109,5.8624496 -31.469495,43.077582 -31.603109,117.45586 64.444559,159.21016 c -2.160736,-7.66853 -1.993839,-17.0795 0.465672,-26.25844 0.736943,-2.75044 1.66891,-5.43863 2.777159,-8.01051 C 52.085312,129.32427 47.907235,126.13433 28.907848,90.822126 14.215138,63.514297 20.726733,38.40521 40.346507,22.456793 61.776549,5.036856 98.63534,-1.5705931 135.36323,8.9237532 123.15851,1.3607746 114.34303,-1.4030512 99.646176,-4.5910866 Z"
           sodipodi:nodetypes="sscscsscs" />
      </g>
      <g
         id="g3-7"
         transform="matrix(0.77136409,0.42406383,-0.42406383,0.77136409,69.571983,-0.10881399)">
        <path
           id="path1-6-9"
           style="fill:#000000;stroke-width:0.306485"
           d="M 100.43956,-6.0307367 C 75.944802,-11.34411 49.24935,-9.1202532 27.757351,3.0542372 -36.431316,39.41494 -35.704375,132.03781 64.444559,159.21016 c -2.160736,-7.66853 -1.993839,-17.0795 0.465672,-26.25844 0.736943,-2.75044 1.66891,-5.43863 2.777159,-8.0105 C 52.085312,129.32428 49.197076,123.59117 32.14413,87.298937 3.7990544,26.974712 70.201295,-8.9503162 140.55455,11.151883 129.04116,3.0587345 115.13641,-2.8427013 100.43956,-6.0307367 Z"
           sodipodi:nodetypes="sscscscs" />
        <path
           id="path1-6-1-2"
           style="fill:#b3b3b3;fill-opacity:1;stroke-width:0.306485"
           d="M 99.646176,-4.5910866 C 75.151418,-9.9044603 50.926848,-6.9584901 29.814109,5.8624496 -31.469495,43.077582 -31.603109,117.45586 64.444559,159.21016 c -2.160736,-7.66853 -1.993839,-17.0795 0.465672,-26.25844 0.736943,-2.75044 1.66891,-5.43863 2.777159,-8.01051 C 52.085312,129.32427 47.907235,126.13433 28.907848,90.822126 14.215138,63.514297 20.726733,38.40521 40.346507,22.456793 61.776549,5.036856 98.63534,-1.5705931 135.36323,8.9237532 123.15851,1.3607746 114.34303,-1.4030512 99.646176,-4.5910866 Z"
           sodipodi:nodetypes="sscscsscs" />
      </g>
      <g
         id="g3-7-2"
         transform="matrix(0.20894502,0.71920107,-0.71920107,0.20894502,151.45477,42.195019)">
        <path
           id="path1-6-9-3"
           style="fill:#000000;stroke-width:0.306485"
           d="M 100.43956,-6.0307367 C 75.944802,-11.34411 49.24935,-9.1202532 27.757351,3.0542372 -36.431316,39.41494 -35.704375,132.03781 64.444559,159.21016 c -2.160736,-7.66853 -1.993839,-17.0795 0.465672,-26.25844 0.736943,-2.75044 1.66891,-5.43863 2.777159,-8.0105 C 52.085312,129.32428 49.197076,123.59117 32.14413,87.298937 3.7990544,26.974712 70.201295,-8.9503162 140.55455,11.151883 129.04116,3.0587345 115.13641,-2.8427013 100.43956,-6.0307367 Z"
           sodipodi:nodetypes="sscscscs" />
        <path
           id="path1-6-1-2-7"
           style="fill:#b3b3b3;fill-opacity:1;stroke-width:0.306485"
           d="M 99.646176,-4.5910866 C 75.151418,-9.9044603 50.926848,-6.9584901 29.814109,5.8624496 -31.469495,43.077582 -31.603109,117.45586 64.444559,159.21016 c -2.160736,-7.66853 -1.993839,-17.0795 0.465672,-26.25844 0.736943,-2.75044 1.66891,-5.43863 2.777159,-8.01051 C 52.085312,129.32427 47.907235,126.13433 28.907848,90.822126 14.215138,63.514297 20.726733,38.40521 40.346507,22.456793 61.776549,5.036856 98.63534,-1.5705931 135.36323,8.9237532 123.15851,1.3607746 114.34303,-1.4030512 99.646176,-4.5910866 Z"
           sodipodi:nodetypes="sscscsscs" />
      </g>
      <circle
         style="fill:#000000;stroke-width:0.259233"
         id="path1"
         cx="-12.782722"
         cy="132.02995"
         r="37.002296"
         transform="rotate(-30)" />
      <circle
         style="fill:#e6e6e6;fill-opacity:1;stroke-width:0.223915"
         id="path1-62"
         cx="-12.782722"
         cy="132.02995"
         r="31.961157"
         transform="rotate(-30)" />
    </g>
  </g>
</svg>
