<?xml version="1.0" encoding="UTF-8" standalone="no"?>
<!-- Created with Inkscape (http://www.inkscape.org/) -->

<svg
   version="1.1"
   id="svg2"
   width="10670.104"
   height="6013.813"
   viewBox="0 0 10670.106 6013.8129"
   sodipodi:docname="MenuBorder.svg"
   inkscape:version="1.4.3 (0d15f75042, 2025-12-25)"
   xml:space="preserve"
   inkscape:export-filename="EchoBall.png"
   inkscape:export-xdpi="25.0746"
   inkscape:export-ydpi="25.0746"
   xmlns:inkscape="http://www.inkscape.org/namespaces/inkscape"
   xmlns:sodipodi="http://sodipodi.sourceforge.net/DTD/sodipodi-0.dtd"
   xmlns="http://www.w3.org/2000/svg"
   xmlns:svg="http://www.w3.org/2000/svg"><defs
     id="defs6"><inkscape:perspective
       sodipodi:type="inkscape:persp3d"
       inkscape:vp_x="0 : 3006.9069 : 1"
       inkscape:vp_y="0 : 1000 : 0"
       inkscape:vp_z="10669.64 : 3006.9069 : 1"
       inkscape:persp3d-origin="5334.8201 : 2004.605 : 1"
       id="perspective29885" /><inkscape:path-effect
       effect="perspective-envelope"
       up_left_point="6533.1138,1130.2775"
       up_right_point="7054.3842,1130.2775"
       down_left_point="5100.996,1282.4426"
       down_right_point="7054.3842,1581.711"
       id="path-effect24672"
       is_visible="true"
       lpeversion="1"
       deform_type="perspective"
       horizontal_mirror="false"
       vertical_mirror="false"
       overflow_perspective="false" /><inkscape:path-effect
       effect="perspective-envelope"
       up_left_point="3963.8455,4088.9277"
       up_right_point="9662.5124,4088.9277"
       down_left_point="5946.1766,4724.5946"
       down_right_point="7650.4435,4730.4506"
       id="path-effect21744"
       is_visible="true"
       lpeversion="1"
       deform_type="perspective"
       horizontal_mirror="false"
       vertical_mirror="false"
       overflow_perspective="false" /><inkscape:path-effect
       effect="envelope"
       id="path-effect1168"
       is_visible="true"
       lpeversion="1"
       yy="true"
       xx="true"
       bendpath1="M 78.198582,112.96501 H 139.89869"
       bendpath2="m 139.89869,112.96501 v 83.99772"
       bendpath3="M 78.198582,196.96273 H 139.89869"
       bendpath4="m 78.198582,112.96501 v 83.99772" /><inkscape:path-effect
       effect="envelope"
       id="path-effect1019"
       is_visible="true"
       lpeversion="1"
       yy="true"
       xx="true"
       bendpath1="M 78.198582,112.96501 H 139.89869"
       bendpath2="m 139.89869,112.96501 v 83.99772"
       bendpath3="M 78.198582,196.96273 H 139.89869"
       bendpath4="m 78.198582,112.96501 v 83.99772" /><inkscape:path-effect
       effect="attach_path"
       id="path-effect1017"
       lpeversion="1"
       is_visible="true"
       startpath=""
       startposition="0"
       startcurvestart="0,0 , 20,0"
       startcurveend="0,0 , 20,0"
       endpath=""
       endposition="0"
       endcurvestart="0,0 , 20,0"
       endcurveend="0,0 , 20,0" /></defs><sodipodi:namedview
     id="namedview4"
     pagecolor="#ffffff"
     bordercolor="#666666"
     borderopacity="1.0"
     inkscape:showpageshadow="2"
     inkscape:pageopacity="0.0"
     inkscape:pagecheckerboard="0"
     inkscape:deskcolor="#d1d1d1"
     showgrid="false"
     inkscape:zoom="0.08"
     inkscape:cx="5306.25"
     inkscape:cy="2881.25"
     inkscape:window-width="1920"
     inkscape:window-height="1008"
     inkscape:window-x="0"
     inkscape:window-y="0"
     inkscape:window-maximized="1"
     inkscape:current-layer="g8"
     showguides="true" /><g
     inkscape:groupmode="layer"
     inkscape:label="Image"
     id="g8"
     transform="translate(-1417.4627,-240.79843)"><g
       id="g1754-6"
       transform="translate(-9.046875e-4,5.3e-4)"><path
         id="rect4732-6-5-8"
         style="fill:#a78a8a;fill-opacity:1;stroke-width:7.23447"
         d="m 1417.9296,5722.034 v 532.5769 H 12087.568 V 5722.034 A 5680.3521,575.20587 0 0 1 6752.748,6100.9358 5680.3521,575.20587 0 0 1 1417.9296,5722.034 Z" /><path
         id="rect4732-2"
         style="fill:#e3dbdb;fill-opacity:1;stroke-width:6.77263"
         d="m 1417.9294,5787.862 v 466.7489 H 12087.568 V 5787.862 A 5680.3521,504.10868 0 0 1 6752.7478,6119.9304 5680.3521,504.10868 0 0 1 1417.9294,5787.862 Z" /><path
         id="rect4732-6-5"
         style="fill:#a78a8a;fill-opacity:1;stroke-width:7.23447"
         d="M 1417.9295,773.37494 V 240.7979 H 12087.568 V 773.37494 A 5680.3521,575.20587 0 0 0 6752.7482,394.47312 5680.3521,575.20587 0 0 0 1417.9295,773.37494 Z" /><path
         id="rect4732-6-8"
         style="fill:#e3dbdb;fill-opacity:1;stroke-width:6.77263"
         d="M 1417.929,707.5468 V 240.7979 H 12087.568 V 707.5468 A 5680.3521,504.10868 0 0 0 6752.7475,375.4784 5680.3521,504.10868 0 0 0 1417.929,707.5468 Z" /><path
         id="rect4732-6-1-4"
         style="fill:#e3dbdb;fill-opacity:1;stroke-width:5.08461"
         d="m 11620.818,240.79843 h 466.749 V 6254.6109 h -466.749 a 504.10868,3201.6616 0 0 0 332.069,-3006.9065 504.10868,3201.6616 0 0 0 -332.069,-3006.90597 z" /><path
         id="rect4732-6-1-8-7"
         style="fill:#e3dbdb;fill-opacity:1;stroke-width:5.08461"
         d="m 1884.6784,240.79843 h -466.749 V 6254.6109 h 466.749 a 504.10868,3201.6616 0 0 1 -332.069,-3006.9065 504.10868,3201.6616 0 0 1 332.069,-3006.90597 z" /><path
         id="rect4732-6-0"
         style="fill:#cbbaba;fill-opacity:1;stroke-width:4.61827"
         d="M 1417.929,457.83116 V 240.79791 H 12087.568 V 457.83116 A 5680.3521,234.40516 0 0 0 6752.7475,303.42291 5680.3521,234.40516 0 0 0 1417.929,457.83116 Z" /><path
         id="rect4732-6-0-8"
         style="fill:#cbbaba;fill-opacity:1;stroke-width:4.61827"
         d="m 1417.9292,6037.5776 v 217.0333 H 12087.568 V 6037.5776 A 5680.3521,234.40516 0 0 1 6752.7477,6191.9859 5680.3521,234.40516 0 0 1 1417.9292,6037.5776 Z" /><path
         id="rect4732-6-0-8-5"
         style="fill:#cbbaba;fill-opacity:1;stroke-width:3.4672"
         d="m 11870.535,6254.6104 h 217.033 V 240.7979 h -217.033 a 234.40516,3201.6618 0 0 1 154.408,3006.9074 234.40516,3201.6618 0 0 1 -154.408,3006.9051 z" /><path
         id="rect4732-6-0-8-5-0"
         style="fill:#cbbaba;fill-opacity:1;stroke-width:3.4672"
         d="m 1634.9624,6254.611 h -217.033 V 240.79843 h 217.033 a 234.40516,3201.6618 0 0 0 -154.408,3006.90747 234.40516,3201.6618 0 0 0 154.408,3006.9051 z" /><path
         id="rect4732-6-0-8-6"
         style="fill:#a78a8a;fill-opacity:1;stroke-width:2.3507"
         d="m 1417.9293,6198.3819 v 56.229 H 12087.568 v -56.229 a 5680.3521,60.729715 0 0 1 -5334.8204,40.0041 5680.3521,60.729715 0 0 1 -5334.8183,-40.0041 z" /><path
         id="rect4732-6-0-8-6-4"
         style="fill:#a78a8a;fill-opacity:1;stroke-width:2.3507"
         d="m 1417.9283,297.02743 v -56.229 H 12087.567 v 56.229 a 5680.3521,60.729715 0 0 0 -5334.8204,-40.0041 5680.3521,60.729715 0 0 0 -5334.8183,40.0041 z" /><path
         id="rect4732-6-0-8-6-4-6"
         style="fill:#a78a8a;fill-opacity:1;stroke-width:1.7648"
         d="m 12031.338,6254.6104 h 56.229 V 240.79843 h -56.229 a 60.729715,3201.6613 0 0 1 40.004,3006.90647 60.729715,3201.6613 0 0 1 -40.004,3006.9055 z" /><path
         id="rect4732-6-0-8-6-4-6-2"
         style="fill:#a78a8a;fill-opacity:1;stroke-width:1.7648"
         d="m 1473.6926,6254.6104 h -56.229 V 240.79843 h 56.229 a 60.729715,3201.6613 0 0 0 -40.004,3006.90647 60.729715,3201.6613 0 0 0 40.004,3006.9055 z" /></g></g></svg>
