<?xml version="1.0" encoding="UTF-8" standalone="no"?>
<!-- Created with Inkscape (http://www.inkscape.org/) -->

<svg
   version="1.1"
   id="svg2"
   width="2992.4749"
   height="3099.7412"
   viewBox="0 0 2992.4756 3099.7412"
   sodipodi:docname="EchoSummary.svg"
   inkscape:version="1.4.3 (0d15f75042, 2025-12-25)"
   xml:space="preserve"
   inkscape:export-filename="EchoBall.png"
   inkscape:export-xdpi="25.0746"
   inkscape:export-ydpi="25.0746"
   xmlns:inkscape="http://www.inkscape.org/namespaces/inkscape"
   xmlns:sodipodi="http://sodipodi.sourceforge.net/DTD/sodipodi-0.dtd"
   xmlns:xlink="http://www.w3.org/1999/xlink"
   xmlns="http://www.w3.org/2000/svg"
   xmlns:svg="http://www.w3.org/2000/svg"><defs
     id="defs6"><linearGradient
       id="linearGradient12"
       inkscape:collect="always"><stop
         style="stop-color:#000000;stop-opacity:1;"
         offset="0"
         id="stop12" /><stop
         style="stop-color:#000000;stop-opacity:0;"
         offset="1"
         id="stop13" /></linearGradient><linearGradient
       id="linearGradient10"
       inkscape:collect="always"><stop
         style="stop-color:#1a1a1a;stop-opacity:1;"
         offset="0"
         id="stop10" /><stop
         style="stop-color:#1a1a1a;stop-opacity:0;"
         offset="1"
         id="stop11" /></linearGradient><inkscape:perspective
       sodipodi:type="inkscape:persp3d"
       inkscape:vp_x="0 : 92.835166 : 1"
       inkscape:vp_y="0 : 1000 : 0"
       inkscape:vp_z="10669.64 : 92.835166 : 1"
       inkscape:persp3d-origin="5334.8202 : -909.46674 : 1"
       id="perspective29885" /><inkscape:path-effect
       effect="perspective-envelope"
       up_left_point="6533.1138,1130.2775"
       up_right_point="7054.3842,1130.2775"
       down_left_point="5100.996,1282.4426"
       down_right_point="7054.3842,1581.711"
       id="path-effect24672"
       is_visible="true"
       lpeversion="1"
       deform_type="perspective"
       horizontal_mirror="false"
       vertical_mirror="false"
       overflow_perspective="false" /><inkscape:path-effect
       effect="perspective-envelope"
       up_left_point="3963.8455,4088.9277"
       up_right_point="9662.5124,4088.9277"
       down_left_point="5946.1766,4724.5946"
       down_right_point="7650.4435,4730.4506"
       id="path-effect21744"
       is_visible="true"
       lpeversion="1"
       deform_type="perspective"
       horizontal_mirror="false"
       vertical_mirror="false"
       overflow_perspective="false" /><inkscape:path-effect
       effect="envelope"
       id="path-effect1168"
       is_visible="true"
       lpeversion="1"
       yy="true"
       xx="true"
       bendpath1="M 78.198582,112.96501 H 139.89869"
       bendpath2="m 139.89869,112.96501 v 83.99772"
       bendpath3="M 78.198582,196.96273 H 139.89869"
       bendpath4="m 78.198582,112.96501 v 83.99772" /><inkscape:path-effect
       effect="envelope"
       id="path-effect1019"
       is_visible="true"
       lpeversion="1"
       yy="true"
       xx="true"
       bendpath1="M 78.198582,112.96501 H 139.89869"
       bendpath2="m 139.89869,112.96501 v 83.99772"
       bendpath3="M 78.198582,196.96273 H 139.89869"
       bendpath4="m 78.198582,112.96501 v 83.99772" /><inkscape:path-effect
       effect="attach_path"
       id="path-effect1017"
       lpeversion="1"
       is_visible="true"
       startpath=""
       startposition="0"
       startcurvestart="0,0 , 20,0"
       startcurveend="0,0 , 20,0"
       endpath=""
       endposition="0"
       endcurvestart="0,0 , 20,0"
       endcurveend="0,0 , 20,0" /><linearGradient
       inkscape:collect="always"
       xlink:href="#linearGradient10"
       id="linearGradient11"
       x1="4145.1294"
       y1="2872.7959"
       x2="4608.5527"
       y2="2637.116"
       gradientUnits="userSpaceOnUse" /><linearGradient
       inkscape:collect="always"
       xlink:href="#linearGradient12"
       id="linearGradient13"
       x1="4144.1465"
       y1="2871.6426"
       x2="4695.1948"
       y2="2620.0557"
       gradientUnits="userSpaceOnUse" /></defs><sodipodi:namedview
     id="namedview4"
     pagecolor="#ffffff"
     bordercolor="#666666"
     borderopacity="1.0"
     inkscape:showpageshadow="2"
     inkscape:pageopacity="0.0"
     inkscape:pagecheckerboard="0"
     inkscape:deskcolor="#d1d1d1"
     showgrid="false"
     inkscape:zoom="0.125"
     inkscape:cx="-192"
     inkscape:cy="1692"
     inkscape:window-width="1920"
     inkscape:window-height="1008"
     inkscape:window-x="0"
     inkscape:window-y="0"
     inkscape:window-maximized="1"
     inkscape:current-layer="g8"
     showguides="true" /><g
     inkscape:groupmode="layer"
     inkscape:label="Image"
     id="g8"
     transform="translate(-5332.7324,-1618.6384)"><g
       id="g5772-5-4-7-1-22"
       transform="matrix(1.0378458,0,0,1.0378458,5111.5328,230.51125)"
       style="fill:none;stroke:#b3b3b3;stroke-width:45.7284;stroke-dasharray:none;stroke-opacity:1" /><g
       id="g5772-5-4-7-1-2"
       transform="matrix(1.1545327,0,0,1.1545327,5130.3651,-291.57387)"
       style="fill:none;stroke:#b3b3b3;stroke-width:45.7284;stroke-dasharray:none;stroke-opacity:1" /><g
       id="g13"
       transform="matrix(1.8166937,0,0,1.8166937,-318.40873,-2032.0848)"><path
         id="path3730-8-0-9-5-2"
         style="baseline-shift:baseline;display:inline;overflow:visible;vector-effect:none;fill:#b3b3b3;stroke:none;stroke-width:47.459;stroke-dasharray:none;stroke-opacity:1;enable-background:accumulate;stop-color:#000000"
         d="m 4369.744,2009.5465 c -24.4381,-0.4035 -65.7529,29.596 -94.4102,69.3789 -21.3482,29.6362 -28.0979,59.2778 -29.5879,81.8652 a 720.94727,720.94727 0 0 0 -414.125,-130.8066 720.94727,720.94727 0 0 0 -720.9473,720.9472 720.94727,720.94727 0 0 0 720.9473,720.9473 720.94727,720.94727 0 0 0 720.9473,-720.9473 720.94727,720.94727 0 0 0 -269.5196,-562.1191 l 37.3887,-51.7598 c 180.4625,144.0321 296.3555,365.7725 296.3555,613.8789 0,273.6919 -141.0154,515.2731 -354.1426,655.8731 v 56.1445 c 240.5036,-146.2206 401.6016,-410.7957 401.6016,-712.0176 0,-263.9042 -123.6515,-499.6705 -316.0137,-652.3671 l 23.9141,-33.1075 c 202.6056,160.1509 332.9179,407.9898 332.9179,685.4746 0,324.7597 -178.4811,608.8787 -442.4199,759.375 v 60.2012 c 294.1421,-155.4353 495.2148,-464.6359 495.2148,-819.5762 1.8494,-308.0438 -139.2934,-551.4936 -376.4687,-737.9023 -3.1805,-2.291 -7.1268,-3.4077 -11.6523,-3.4824 z" /><path
         id="path5-3"
         style="fill:#8d8d8d;fill-opacity:1;stroke:none;stroke-width:148.309;stroke-dasharray:none;stroke-opacity:1"
         d="m 4369.7947,2064.8375 c -4.8856,-0.019 -12.872,5.5786 -17.959,11.8769 -6.0289,7.4648 -7.7823,19.1611 -3.5976,21.8497 192.3622,152.6965 316.0137,388.4629 316.0137,652.3671 0,146.069 -37.8814,283.5202 -104.3301,403.0372 2.448,3.1587 32.6615,19.6276 37.1738,17.1152 68.7934,-124.7538 107.9746,-267.9921 107.9746,-420.1524 0,-268.4723 -123.595,-520.014 -332.9179,-685.4746 -0.6539,-0.4201 -1.4527,-0.6156 -2.3575,-0.6191 z"
         sodipodi:nodetypes="sscsccscs" /><path
         id="path5-3-5"
         style="fill:url(#linearGradient13);fill-opacity:1;stroke:none;stroke-width:148.309;stroke-dasharray:none;stroke-opacity:1"
         d="m 4369.7947,2064.8375 c -4.8856,-0.019 -12.872,5.5786 -17.959,11.8769 -6.0289,7.4648 -7.7823,19.1611 -3.5976,21.8497 192.3622,152.6965 316.0137,388.4629 316.0137,652.3671 0,146.069 -37.8814,283.5202 -104.3301,403.0372 2.448,3.1587 32.6615,19.6276 37.1738,17.1152 68.7934,-124.7538 107.9746,-267.9921 107.9746,-420.1524 0,-268.4723 -123.595,-520.014 -332.9179,-685.4746 -0.6539,-0.4201 -1.4527,-0.6156 -2.3575,-0.6191 z"
         sodipodi:nodetypes="sscsccscs" /><path
         id="path4-1"
         style="fill:#8d8d8d;fill-opacity:1;stroke:none;stroke-width:148.309;stroke-dasharray:none;stroke-opacity:1"
         d="m 4290.5525,2153.1559 c -9.4246,11.6715 -14.0396,31.4585 -7.498,35.6621 l 0.031,-0.043 c 170.3909,136.8397 269.516,343.5808 269.5157,562.1172 1e-4,137.0196 -39.0461,271.202 -112.5645,386.8281 -3.8394,16.8888 54.0127,-3.4635 70.252,3.4082 0.8245,0.053 1.6918,-0.06 2.5976,-0.334 66.101,-114.9694 103.9395,-248.1272 103.9395,-389.9023 0,-334.5082 -198.9976,-537.5736 -296.3885,-613.8399 0.1571,-0.1887 -17.4848,0.7473 -29.8848,16.1036 z"
         sodipodi:nodetypes="sccscccscs" /><path
         id="path4-1-1"
         style="fill:url(#linearGradient11);fill-opacity:1;stroke:none;stroke-width:148.309;stroke-dasharray:none;stroke-opacity:1"
         d="m 4290.5215,2153.1989 c -9.4246,11.6715 -14.0396,31.4585 -7.498,35.6621 l 0.031,-0.043 c 170.3909,136.8397 269.516,343.5808 269.5157,562.1172 1e-4,137.0196 -39.0461,271.202 -112.5645,386.8281 -3.8394,16.8888 54.0127,-3.4635 70.252,3.4082 0.8245,0.053 1.6918,-0.06 2.5976,-0.334 66.101,-114.9694 103.9395,-248.1272 103.9395,-389.9023 0,-334.5082 -198.9976,-537.5736 -296.3885,-613.8399 0.1571,-0.1887 -17.4848,0.7473 -29.8848,16.1036 z"
         sodipodi:nodetypes="sccscccscs" /><circle
         style="fill:#6d989c;fill-opacity:1;stroke-width:6.87063"
         id="path3730-6-2-9"
         cx="3831.6211"
         cy="2750.9319"
         r="674.83307" /><ellipse
         style="fill:#5a7e83;fill-opacity:1;stroke:none;stroke-width:5.13196"
         id="path2026-1-0-4-2-4-0-6"
         cx="3831.6211"
         cy="3100.0151"
         rx="571.55029"
         ry="135.93402" /><path
         style="fill:#405b5e;fill-opacity:1;stroke-width:11.5625"
         d="m 3787.887,3425.763 c -105.6495,-7.9314 -206.4516,-38.7567 -294.8436,-90.1633 -77.3129,-44.9633 -145.1131,-105.1122 -199.6136,-177.0875 -14.0164,-18.5106 -17.5135,-24.3346 -11.0406,-18.3864 6.0417,5.5518 24.4732,16.6304 39.1977,23.5606 170.5907,80.2891 616.4629,99.5394 897.0031,38.7277 69.8057,-15.1316 130.7635,-37.6891 156.5217,-57.9211 3.0176,-2.3703 5.8818,-3.9143 6.3648,-3.4312 0.4831,0.483 -5.6689,9.5043 -13.671,20.0472 -39.6991,52.3045 -90.4001,101.5654 -143.4854,139.4098 -95.6982,68.2231 -201.4597,108.7288 -320.0855,122.5899 -19.5469,2.2839 -97.5698,4.0639 -116.3476,2.6543 z"
         id="path3996-2-8-1" /><ellipse
         style="fill:#b3b3b3;fill-opacity:1;stroke-width:202.928"
         id="path761-9-4-7-6-2-0-7-1"
         cx="-4459.9473"
         cy="3425.7649"
         transform="scale(-1,1)"
         rx="289.06659"
         ry="290.03171" /><ellipse
         style="fill:#000000;fill-opacity:1;stroke-width:175.21"
         id="path761-74-2-8-9-5-5-8"
         cx="-4459.9473"
         cy="3425.7649"
         rx="250"
         ry="249.99998"
         transform="scale(-1,1)" /></g></g></svg>
